<svg width="1165" height="538" viewBox="0 0 1165 538" fill="none" xmlns="http://www.w3.org/2000/svg">
<g id="Section 2">
<path d="M40 42C40 40.8954 40.8954 40 42 40H1123C1124.1 40 1125 40.8954 1125 42V496C1125 497.105 1124.1 498 1123 498H42C40.8954 498 40 497.105 40 496V42Z" fill="white"/>
<rect id="Rectangle 1" x="363.5" y="140.5" width="438" height="222" fill="#D9D9D9" stroke="black"/>
<line id="Line 1" x1="140" y1="362.5" x2="1025" y2="362.5" stroke="black"/>
<line id="Line 2" y1="-0.5" x2="48.3897" y2="-0.5" transform="matrix(0.692571 -0.721349 0.862824 0.505505 140 398)" stroke="black"/>
<line id="Line 3" y1="-0.5" x2="48.3897" y2="-0.5" transform="matrix(0.692571 -0.721349 0.862824 0.505505 173.513 398)" stroke="black"/>
<line id="Line 4" y1="-0.5" x2="48.3897" y2="-0.5" transform="matrix(0.692571 -0.721349 0.862824 0.505505 207.027 398)" stroke="black"/>
<line id="Line 5" y1="-0.5" x2="48.3897" y2="-0.5" transform="matrix(0.692571 -0.721349 0.862824 0.505505 240.54 398)" stroke="black"/>
<line id="Line 6" y1="-0.5" x2="48.3897" y2="-0.5" transform="matrix(0.692571 -0.721349 0.862824 0.505505 274.053 398)" stroke="black"/>
<line id="Line 7" y1="-0.5" x2="48.3897" y2="-0.5" transform="matrix(0.692571 -0.721349 0.862824 0.505505 307.567 398)" stroke="black"/>
<line id="Line 8" y1="-0.5" x2="48.3897" y2="-0.5" transform="matrix(0.692571 -0.721349 0.862824 0.505505 341.08 398)" stroke="black"/>
<line id="Line 9" y1="-0.5" x2="48.3897" y2="-0.5" transform="matrix(0.692571 -0.721349 0.862824 0.505505 374.593 398)" stroke="black"/>
<line id="Line 10" y1="-0.5" x2="48.3897" y2="-0.5" transform="matrix(0.692571 -0.721349 0.862824 0.505505 408.107 398)" stroke="black"/>
<line id="Line 11" y1="-0.5" x2="48.3897" y2="-0.5" transform="matrix(0.692571 -0.721349 0.862824 0.505505 441.62 398)" stroke="black"/>
<line id="Line 12" y1="-0.5" x2="48.3897" y2="-0.5" transform="matrix(0.692571 -0.721349 0.862824 0.505505 475.133 398)" stroke="black"/>
<line id="Line 13" y1="-0.5" x2="48.3897" y2="-0.5" transform="matrix(0.692571 -0.721349 0.862824 0.505505 508.647 398)" stroke="black"/>
<line id="Line 14" y1="-0.5" x2="48.3897" y2="-0.5" transform="matrix(0.692571 -0.721349 0.862824 0.505505 542.16 398)" stroke="black"/>
<line id="Line 15" y1="-0.5" x2="48.3897" y2="-0.5" transform="matrix(0.692571 -0.721349 0.862824 0.505505 575.673 398)" stroke="black"/>
<line id="Line 16" y1="-0.5" x2="48.3897" y2="-0.5" transform="matrix(0.692571 -0.721349 0.862824 0.505505 609.187 398)" stroke="black"/>
<line id="Line 17" y1="-0.5" x2="48.3897" y2="-0.5" transform="matrix(0.692571 -0.721349 0.862824 0.505505 642.7 398)" stroke="black"/>
<line id="Line 18" y1="-0.5" x2="48.3897" y2="-0.5" transform="matrix(0.692571 -0.721349 0.862824 0.505505 676.213 398)" stroke="black"/>
<line id="Line 19" y1="-0.5" x2="48.3897" y2="-0.5" transform="matrix(0.692571 -0.721349 0.862824 0.505505 709.727 398)" stroke="black"/>
<line id="Line 20" y1="-0.5" x2="48.3897" y2="-0.5" transform="matrix(0.692571 -0.721349 0.862824 0.505505 743.24 398)" stroke="black"/>
<line id="Line 21" y1="-0.5" x2="48.3897" y2="-0.5" transform="matrix(0.692571 -0.721349 0.862824 0.505505 776.753 398)" stroke="black"/>
<line id="Line 22" y1="-0.5" x2="48.3897" y2="-0.5" transform="matrix(0.692571 -0.721349 0.862824 0.505505 810.267 398)" stroke="black"/>
<line id="Line 23" y1="-0.5" x2="48.3897" y2="-0.5" transform="matrix(0.692571 -0.721349 0.862824 0.505505 843.78 398)" stroke="black"/>
<line id="Line 24" y1="-0.5" x2="48.3897" y2="-0.5" transform="matrix(0.692571 -0.721349 0.862824 0.505505 877.293 398)" stroke="black"/>
<line id="Line 25" y1="-0.5" x2="48.3897" y2="-0.5" transform="matrix(0.692571 -0.721349 0.862824 0.505505 910.806 398)" stroke="black"/>
<line id="Line 26" y1="-0.5" x2="48.3897" y2="-0.5" transform="matrix(0.692571 -0.721349 0.862824 0.505505 944.32 398)" stroke="black"/>
<line id="Line 27" y1="-0.5" x2="48.3897" y2="-0.5" transform="matrix(0.692571 -0.721349 0.862824 0.505505 977.833 398)" stroke="black"/>
<text id="m1" fill="black" xml:space="preserve" style="white-space: pre" font-family="Inter" font-size="48" font-style="italic" letter-spacing="0em"><tspan x="557" y="251.955">m₁</tspan></text>
</g>
</svg>
