<svg width="1165" height="538" viewBox="0 0 1165 538" fill="none" xmlns="http://www.w3.org/2000/svg">
<g id="Section 8">
<path d="M40 42C40 40.8954 40.8954 40 42 40H1123C1124.1 40 1125 40.8954 1125 42V496C1125 497.105 1124.1 498 1123 498H42C40.8954 498 40 497.105 40 496V42Z" fill="white"/>
<path id="Line 83" d="M362 252L352 246.226V257.774L362 252ZM190 253H353V251H190V253Z" fill="black"/>
<g id="FA">
<text fill="black" xml:space="preserve" style="white-space: pre" font-family="Inter" font-size="36" font-style="italic" letter-spacing="0em"><tspan x="259" y="227.091">F₁</tspan></text>
</g>
<path id="Line 84" d="M296 189L286 183.226L286 194.774L296 189ZM266 190L287 190L287 188L266 188L266 190Z" fill="black"/>
<path id="Line 85" d="M296 189L286 183.226L286 194.774L296 189ZM266 190L287 190L287 188L266 188L266 190Z" fill="black"/>
<rect id="Rectangle 6" x="363.5" y="140.5" width="438" height="222" fill="#D9D9D9" stroke="black"/>
<line id="Line 56" x1="140" y1="362.5" x2="1025" y2="362.5" stroke="black"/>
<line id="Line 57" y1="-0.5" x2="48.3897" y2="-0.5" transform="matrix(0.692571 -0.721349 0.862824 0.505505 140 398)" stroke="black"/>
<line id="Line 58" y1="-0.5" x2="48.3897" y2="-0.5" transform="matrix(0.692571 -0.721349 0.862824 0.505505 173.513 398)" stroke="black"/>
<line id="Line 59" y1="-0.5" x2="48.3897" y2="-0.5" transform="matrix(0.692571 -0.721349 0.862824 0.505505 207.027 398)" stroke="black"/>
<line id="Line 60" y1="-0.5" x2="48.3897" y2="-0.5" transform="matrix(0.692571 -0.721349 0.862824 0.505505 240.54 398)" stroke="black"/>
<line id="Line 61" y1="-0.5" x2="48.3897" y2="-0.5" transform="matrix(0.692571 -0.721349 0.862824 0.505505 274.053 398)" stroke="black"/>
<line id="Line 62" y1="-0.5" x2="48.3897" y2="-0.5" transform="matrix(0.692571 -0.721349 0.862824 0.505505 307.567 398)" stroke="black"/>
<line id="Line 63" y1="-0.5" x2="48.3897" y2="-0.5" transform="matrix(0.692571 -0.721349 0.862824 0.505505 341.08 398)" stroke="black"/>
<line id="Line 64" y1="-0.5" x2="48.3897" y2="-0.5" transform="matrix(0.692571 -0.721349 0.862824 0.505505 374.593 398)" stroke="black"/>
<line id="Line 65" y1="-0.5" x2="48.3897" y2="-0.5" transform="matrix(0.692571 -0.721349 0.862824 0.505505 408.107 398)" stroke="black"/>
<line id="Line 66" y1="-0.5" x2="48.3897" y2="-0.5" transform="matrix(0.692571 -0.721349 0.862824 0.505505 441.62 398)" stroke="black"/>
<line id="Line 67" y1="-0.5" x2="48.3897" y2="-0.5" transform="matrix(0.692571 -0.721349 0.862824 0.505505 475.133 398)" stroke="black"/>
<line id="Line 68" y1="-0.5" x2="48.3897" y2="-0.5" transform="matrix(0.692571 -0.721349 0.862824 0.505505 508.647 398)" stroke="black"/>
<line id="Line 69" y1="-0.5" x2="48.3897" y2="-0.5" transform="matrix(0.692571 -0.721349 0.862824 0.505505 542.16 398)" stroke="black"/>
<line id="Line 70" y1="-0.5" x2="48.3897" y2="-0.5" transform="matrix(0.692571 -0.721349 0.862824 0.505505 575.673 398)" stroke="black"/>
<line id="Line 71" y1="-0.5" x2="48.3897" y2="-0.5" transform="matrix(0.692571 -0.721349 0.862824 0.505505 609.187 398)" stroke="black"/>
<line id="Line 72" y1="-0.5" x2="48.3897" y2="-0.5" transform="matrix(0.692571 -0.721349 0.862824 0.505505 642.7 398)" stroke="black"/>
<line id="Line 73" y1="-0.5" x2="48.3897" y2="-0.5" transform="matrix(0.692571 -0.721349 0.862824 0.505505 676.213 398)" stroke="black"/>
<line id="Line 74" y1="-0.5" x2="48.3897" y2="-0.5" transform="matrix(0.692571 -0.721349 0.862824 0.505505 709.727 398)" stroke="black"/>
<line id="Line 75" y1="-0.5" x2="48.3897" y2="-0.5" transform="matrix(0.692571 -0.721349 0.862824 0.505505 743.24 398)" stroke="black"/>
<line id="Line 76" y1="-0.5" x2="48.3897" y2="-0.5" transform="matrix(0.692571 -0.721349 0.862824 0.505505 776.753 398)" stroke="black"/>
<line id="Line 77" y1="-0.5" x2="48.3897" y2="-0.5" transform="matrix(0.692571 -0.721349 0.862824 0.505505 810.267 398)" stroke="black"/>
<line id="Line 78" y1="-0.5" x2="48.3897" y2="-0.5" transform="matrix(0.692571 -0.721349 0.862824 0.505505 843.78 398)" stroke="black"/>
<line id="Line 79" y1="-0.5" x2="48.3897" y2="-0.5" transform="matrix(0.692571 -0.721349 0.862824 0.505505 877.293 398)" stroke="black"/>
<line id="Line 80" y1="-0.5" x2="48.3897" y2="-0.5" transform="matrix(0.692571 -0.721349 0.862824 0.505505 910.806 398)" stroke="black"/>
<line id="Line 81" y1="-0.5" x2="48.3897" y2="-0.5" transform="matrix(0.692571 -0.721349 0.862824 0.505505 944.32 398)" stroke="black"/>
<line id="Line 82" y1="-0.5" x2="48.3897" y2="-0.5" transform="matrix(0.692571 -0.721349 0.862824 0.505505 977.833 398)" stroke="black"/>
<text id="m1" fill="black" xml:space="preserve" style="white-space: pre" font-family="Inter" font-size="48" font-style="italic" letter-spacing="0em"><tspan x="557" y="251.955">m₁</tspan></text>
</g>
</svg>
