<svg width="826" height="827" viewBox="0 0 826 827" fill="none" xmlns="http://www.w3.org/2000/svg">
<g id="Section 10">
<path d="M40 42C40 40.8954 40.8954 40 42 40H784C785.105 40 786 40.8954 786 42V784.5C786 785.605 785.105 786.5 784 786.5H42C40.8954 786.5 40 785.605 40 784.5V42Z" fill="white"/>
<circle id="Ellipse 5" cx="293.5" cy="285.5" r="38.5" fill="#D9D9D9"/>
<circle id="Ellipse 6" cx="520.5" cy="349.5" r="38.5" fill="#D9D9D9"/>
<circle id="Ellipse 7" cx="370.5" cy="524.5" r="38.5" fill="#D9D9D9"/>
<path id="Line 97" d="M140.5 140L134.726 150H146.274L140.5 140ZM139.5 149L139.5 686H141.5L141.5 149H139.5Z" fill="black"/>
<path id="Line 98" d="M686 686.5L676 680.727L676 692.274L686 686.5ZM677 685.5L140 685.5L140 687.5L677 687.5L677 685.5Z" fill="black"/>
</g>
</svg>
