<svg class='vector' id='right' width="800" height="600" viewBox="0 0 800 600" xml:space="preserve">
		<g id='right-0' transform="matrix(-1 0 0 -1 488.2 273.86)">
			<line style="stroke: rgb(0,0,0); stroke-width: 3; stroke-dasharray: none; stroke-linecap: butt; stroke-dashoffset: 0; stroke-linejoin: miter; stroke-miterlimit: 4; fill: rgb(0,0,0); fill-rule: nonzero; opacity: 1;" x1="-43.66666666666666" y1="0" x2="43.66666666666666" y2="0"></line>
		</g>
		<g id='right-1' transform="matrix(0 -0.07 0.07 0 441.57 274.1)">
			<polygon style="stroke: rgb(0,0,0); stroke-width: 2; stroke-dasharray: none; stroke-linecap: butt; stroke-dashoffset: 0; stroke-linejoin: miter; stroke-miterlimit: 4; fill: rgb(0,0,0); fill-rule: nonzero; opacity: 1;" points="0,-42.5 50,42.5 -50,42.5 "></polygon>
		</g>
		<g id='right-name' transform="matrix(1 0 0 1 484.14 252.45)">
			<g id='name-text' transform="matrix(1 0 0 1 0 0.99)" style="">
				<text xml:space="preserve" font-family="'Open Sans', sans-serif" font-size="18" font-style="normal" font-weight="normal" style="stroke: none; stroke-width: 1; stroke-dasharray: none; stroke-linecap: butt; stroke-dashoffset: 0; stroke-linejoin: miter; stroke-miterlimit: 4; fill: rgb(0,0,0); fill-rule: nonzero; opacity: 1; white-space: pre;"><tspan id='value' x="-10.12" y="5.65" style="stroke-width: 1; font-family: 'Open Sans', sans-serif; font-size: 18px; font-style: italic; font-weight: normal; fill: rgb(0,0,0); ">F</tspan><tspan id='sub' x="0.88" y="5.65" dy="1.98" style="stroke-width: 1; font-family: 'Open Sans', sans-serif; font-size: 10.799999999999999px; font-style: italic; font-weight: normal; fill: rgb(0,0,0); baseline-shift: -1.98; ">X</tspan></text>
			</g>
			<g id='name-vector'>
				<g id='name-0' transform="matrix(0.1 0 0 1 -1.78 -9.61)">
					<line style="stroke: rgb(0,0,0); stroke-width: 1; stroke-dasharray: none; stroke-linecap: butt; stroke-dashoffset: 0; stroke-linejoin: miter; stroke-miterlimit: 4; fill: rgb(0,0,0); fill-rule: nonzero; opacity: 1;" x1="-43.66666666666666" y1="0" x2="43.66666666666666" y2="0"></line>
				</g>
				<g id='name-1' transform="matrix(0 0.04 -0.04 0 4.75 -9.66)">
					<polygon style="stroke: rgb(0,0,0); stroke-width: 0; stroke-dasharray: none; stroke-linecap: butt; stroke-dashoffset: 0; stroke-linejoin: miter; stroke-miterlimit: 4; fill: rgb(0,0,0); fill-rule: nonzero; opacity: 1;" points="0,-42.5 50,42.5 -50,42.5 "></polygon>
				</g>
			</g>
		</g>
	</svg>