<svg class='vector' id='left' width="714" height="170" viewBox="0 0 714 170" xml:space="preserve">
  <path d="M181 74L173.5 69.6699V78.3301L181 74ZM42 74.75H174.25V73.25H42V74.75Z" fill="black"/>
  <path d="M114 50L110.5 47.9793L110.5 52.0207L114 50ZM101 50.35L110.85 50.35L110.85 49.65L101 49.65L101 50.35Z" fill="black"/>
  <path d="M98.6818 65L100.614 53.3636H107.591L107.386 54.6136H101.818L101.159 58.5455H106.205L106 59.7955H100.955L100.091 65H98.6818ZM109.596 61.0182L110.817 63.7489H110.871L112.992 61.0182H114.229L111.482 64.5091L113.084 68H111.867L110.639 65.3068H110.585L108.458 68H107.22L110.033 64.5091L108.393 61.0182H109.596Z" fill="black"/>
</svg>