<svg xmlns="http://www.w3.org/2000/svg" xmlns:xlink="http://www.w3.org/1999/xlink" version="1.1" width="800" height="600" viewBox="0 0 800 600" xml:space="preserve">
<desc>Created with Fabric.js 4.5.0</desc>
<defs>
</defs>
<rect x="0" y="0" width="100%" height="100%" fill="rgba(255, 255, 255, 1)"/>
<g transform="matrix(0 0 0 0 0 0)">
</g>
<g transform="matrix(2.04 1.15 -0.52 0.92 274.77 255.64)">
<polygon style="stroke: rgb(0,0,0); stroke-width: 0.2; stroke-dasharray: none; stroke-linecap: butt; stroke-dashoffset: 0; stroke-linejoin: miter; stroke-miterlimit: 4; fill: rgb(214,214,214); fill-rule: nonzero; opacity: 1;" points="-50,-50 -50,50 50,50 50,-50 "/>
</g>
<g transform="matrix(5.61 0 0 3.17 284.12 321.67)">
<polygon style="stroke: rgb(0,0,0); stroke-width: 0.1; stroke-dasharray: none; stroke-linecap: butt; stroke-dashoffset: 0; stroke-linejoin: miter; stroke-miterlimit: 4; fill: rgb(197,238,180); fill-rule: nonzero; opacity: 1;" points="-50,-50 50,50 -50,50 "/>
</g>
<g transform="matrix(1 0 0 1 380.25 375.33)">
<line style="stroke: rgb(0,221,25); stroke-width: 3; stroke-dasharray: none; stroke-linecap: butt; stroke-dashoffset: 0; stroke-linejoin: miter; stroke-miterlimit: 4; fill: rgb(0,0,0); fill-rule: nonzero; opacity: 1;" x1="-29.583333333333314" y1="-16.666666666666686" x2="29.583333333333314" y2="16.666666666666686"/>
</g>
<g transform="matrix(1.01 0 0 1.01 469.7 455.24)">
<path style="stroke: rgb(0,0,0); stroke-width: 0.4; stroke-dasharray: none; stroke-linecap: butt; stroke-dashoffset: 0; stroke-linejoin: miter; stroke-miterlimit: 4; fill: none; fill-rule: nonzero; opacity: 1;" transform=" translate(-469.12, -455.08)" d="M 466.49998982747394 478.8333320617675 Q 458.99998982747394 453.8333320617675 476.49998982747394 431.3333320617675" stroke-linecap="round"/>
</g>
<g transform="matrix(-0.05 0.09 -0.09 -0.05 414.64 393.83)">
<polygon style="stroke: rgb(0,221,25); stroke-width: 1; stroke-dasharray: none; stroke-linecap: butt; stroke-dashoffset: 0; stroke-linejoin: miter; stroke-miterlimit: 4; fill: rgb(0,221,25); fill-rule: nonzero; opacity: 1;" points="0,-42.5 50,42.5 -50,42.5 "/>
</g>
<g transform="matrix(0.85 0.5 -0.85 1.44 274.64 351.25)">
<polygon style="stroke: rgb(123,121,121); stroke-opacity: 0.54; stroke-width: 0.5; stroke-dasharray: none; stroke-linecap: butt; stroke-dashoffset: 0; stroke-linejoin: miter; stroke-miterlimit: 4; fill: none; fill-rule: nonzero; opacity: 1;" points="-50,-50 -50,50 50,50 50,-50 "/>
</g>
<g transform="matrix(-0.1 0 0 -0.1 275.24 444.08)">
<polygon style="stroke: rgb(237,0,228); stroke-width: 1; stroke-dasharray: none; stroke-linecap: butt; stroke-dashoffset: 0; stroke-linejoin: miter; stroke-miterlimit: 4; fill: rgb(237,0,228); fill-rule: nonzero; opacity: 1;" points="0,-42.5 50,42.5 -50,42.5 "/>
</g>


<g transform="matrix(1 0.02 -0.02 1 317.33 279.18)">
<line style="stroke: rgb(235,0,0); stroke-width: 3; stroke-dasharray: none; stroke-linecap: butt; stroke-dashoffset: 0; stroke-linejoin: miter; stroke-miterlimit: 4; fill: rgb(0,0,0); fill-rule: nonzero; opacity: 1;" x1="-41.66666666666666" y1="-23.333333333333343" x2="41.66666666666666" y2="23.333333333333343"/>
</g>
<g transform="matrix(-0.09 -0.05 0.05 -0.09 191.9 393.78)">
<polygon style="stroke: rgb(0,24,191); stroke-width: 1; stroke-dasharray: none; stroke-linecap: butt; stroke-dashoffset: 0; stroke-linejoin: miter; stroke-miterlimit: 4; fill: rgb(0,24,191); fill-rule: nonzero; opacity: 1;" points="0,-42.5 50,42.5 -50,42.5 "/>
</g>
<g transform="matrix(-0.05 0.09 -0.09 -0.05 356.89 301.44)">
<polygon style="stroke: rgb(235,0,0); stroke-width: 1; stroke-dasharray: none; stroke-linecap: butt; stroke-dashoffset: 0; stroke-linejoin: miter; stroke-miterlimit: 4; fill: rgb(235,0,0); fill-rule: nonzero; opacity: 1;" points="0,-42.5 50,42.5 -50,42.5 "/>
</g>
<g transform="matrix(0.98 0 0 0.98 103.75 157.63)">
<line style="stroke: rgb(165,120,54); stroke-width: 3; stroke-dasharray: none; stroke-linecap: butt; stroke-dashoffset: 0; stroke-linejoin: miter; stroke-miterlimit: 4; fill: rgb(0,0,0); fill-rule: nonzero; opacity: 1;" x1="69.16666666666666" y1="41.666666666666664" x2="-69.16666666666666" y2="-41.666666666666664"/>
</g>
<g transform="matrix(0.05 -0.08 0.08 0.05 32.35 114.91)">
<polygon style="stroke: rgb(165,120,54); stroke-width: 1; stroke-dasharray: none; stroke-linecap: butt; stroke-dashoffset: 0; stroke-linejoin: miter; stroke-miterlimit: 4; fill: rgb(165,120,54); fill-rule: nonzero; opacity: 1;" points="0,-42.5 50,42.5 -50,42.5 "/>
</g>
<g transform="matrix(0.73 0 0 0.73 231.46 324.24)">
<line style="stroke: rgb(0,24,191); stroke-width: 3; stroke-dasharray: none; stroke-linecap: butt; stroke-dashoffset: 0; stroke-linejoin: miter; stroke-miterlimit: 4; fill: rgb(0,0,0); fill-rule: nonzero; opacity: 1;" x1="54.999999999999986" y1="-93.33333333333331" x2="-54.999999999999986" y2="93.33333333333331"/>
</g>
<g transform="matrix(0.87 0 0 0.87 274.48 349.4)">
<line style="stroke: rgb(237,0,228); stroke-width: 3; stroke-dasharray: none; stroke-linecap: butt; stroke-dashoffset: 0; stroke-linejoin: miter; stroke-miterlimit: 4; fill: rgb(0,0,0); fill-rule: nonzero; opacity: 1;" x1="0" y1="-107.91666666666666" x2="0" y2="107.91666666666666"/>
</g>
<g transform="matrix(0 -1.01 1.01 0 249.36 345.57)">
<path style="stroke: rgb(0,0,0); stroke-width: 0.4; stroke-dasharray: none; stroke-linecap: butt; stroke-dashoffset: 0; stroke-linejoin: miter; stroke-miterlimit: 4; fill: none; fill-rule: nonzero; opacity: 1;" transform=" translate(-469.12, -455.08)" d="M 466.49998982747394 478.8333320617675 Q 458.99998982747394 453.8333320617675 476.49998982747394 431.3333320617675" stroke-linecap="round"/>
</g>
<g transform="matrix(1 0 0 1 57.34 109.81)" style="">
		<text xml:space="preserve" font-family="'Open Sans', sans-serif" font-size="18" font-style="normal" font-weight="bold" style="stroke: none; stroke-width: 1; stroke-dasharray: none; stroke-linecap: butt; stroke-dashoffset: 0; stroke-linejoin: miter; stroke-miterlimit: 4; fill: rgb(165,120,54); fill-rule: nonzero; opacity: 1; white-space: pre;"><tspan x="-10.32" y="5.65" style="font-style: italic; ">A</tspan></text>
</g>
<g transform="matrix(1 0 0 1 409.21 372.43)" style="">
		<text xml:space="preserve" font-family="'Open Sans', sans-serif" font-size="18" font-style="normal" font-weight="bold" style="stroke: none; stroke-width: 1; stroke-dasharray: none; stroke-linecap: butt; stroke-dashoffset: 0; stroke-linejoin: miter; stroke-miterlimit: 4; fill: rgb(0,221,25); fill-rule: nonzero; opacity: 1; white-space: pre;"><tspan x="-10.32" y="5.65" style="font-style: italic; ">E</tspan></text>
</g>
<g transform="matrix(1 0 0 1 349.04 280.47)" style="">
		<text xml:space="preserve" font-family="'Open Sans', sans-serif" font-size="18" font-style="normal" font-weight="bold" style="stroke: none; stroke-width: 1; stroke-dasharray: none; stroke-linecap: butt; stroke-dashoffset: 0; stroke-linejoin: miter; stroke-miterlimit: 4; fill: rgb(235,0,0); fill-rule: nonzero; opacity: 1; white-space: pre;"><tspan x="-10.32" y="5.65" style="font-style: italic; ">C</tspan></text>
</g>
<g transform="matrix(0.73 0 0 0.73 314.72 184.04)">
<line style="stroke: rgb(223,205,27); stroke-width: 3; stroke-dasharray: none; stroke-linecap: butt; stroke-dashoffset: 0; stroke-linejoin: miter; stroke-miterlimit: 4; fill: rgb(0,0,0); fill-rule: nonzero; opacity: 1;" x1="54.999999999999986" y1="-93.33333333333331" x2="-54.999999999999986" y2="93.33333333333331"/>
</g>
<g transform="matrix(1 0 0 1 290.48 407.63)" style="">
		<text xml:space="preserve" font-family="'Open Sans', sans-serif" font-size="18" font-style="normal" font-weight="bold" style="stroke: none; stroke-width: 1; stroke-dasharray: none; stroke-linecap: butt; stroke-dashoffset: 0; stroke-linejoin: miter; stroke-miterlimit: 4; fill: rgb(237,0,228); fill-rule: nonzero; opacity: 1; white-space: pre;"><tspan x="-10.32" y="5.65" style="font-style: italic; ">F</tspan></text>
</g>
<g transform="matrix(1 0 0 1 194.44 365.75)" style="">
		<text xml:space="preserve" font-family="'Open Sans', sans-serif" font-size="18" font-style="normal" font-weight="bold" style="stroke: none; stroke-width: 1; stroke-dasharray: none; stroke-linecap: butt; stroke-dashoffset: 0; stroke-linejoin: miter; stroke-miterlimit: 4; fill: rgb(0,24,191); fill-rule: nonzero; opacity: 1; white-space: pre;"><tspan x="-10.32" y="5.65" style="font-style: italic; ">D</tspan></text>
</g>
<g transform="matrix(1 0 0 1 455.46 450.45)" style="">
		<text xml:space="preserve" font-family="'Open Sans', sans-serif" font-size="23" font-style="normal" font-weight="bold" style="stroke: none; stroke-width: 1; stroke-dasharray: none; stroke-linecap: butt; stroke-dashoffset: 0; stroke-linejoin: miter; stroke-miterlimit: 4; fill: rgb(0,221,25); fill-rule: nonzero; opacity: 1; white-space: pre;"><tspan x="-10.32" y="7.23" style="fill: rgb(0,0,0); ">ğ›¼</tspan></text>
</g>
<g transform="matrix(1 0 0 1 245.06 359.25)" style="">
		<text xml:space="preserve" font-family="'Open Sans', sans-serif" font-size="23" font-style="normal" font-weight="bold" style="stroke: none; stroke-width: 1; stroke-dasharray: none; stroke-linecap: butt; stroke-dashoffset: 0; stroke-linejoin: miter; stroke-miterlimit: 4; fill: rgb(0,221,25); fill-rule: nonzero; opacity: 1; white-space: pre;"><tspan x="-10.32" y="7.23" style="fill: rgb(0,0,0); ">ğ›¼</tspan></text>
</g>
<g transform="matrix(0.07 0 0 0.07 273.46 254.28)">
<circle style="stroke: rgb(0,0,0); stroke-width: 1; stroke-dasharray: none; stroke-linecap: butt; stroke-dashoffset: 0; stroke-linejoin: miter; stroke-miterlimit: 4; fill: rgb(214,214,214); fill-rule: nonzero; opacity: 1;" cx="0" cy="0" r="40"/>
</g>
<g transform="matrix(-0.09 -0.05 -0.05 0.09 357.77 113.09)">
<polygon style="stroke: rgb(223,205,27); stroke-width: 1; stroke-dasharray: none; stroke-linecap: butt; stroke-dashoffset: 0; stroke-linejoin: miter; stroke-miterlimit: 4; fill: rgb(223,205,27); fill-rule: nonzero; opacity: 1;" points="0,-42.5 50,42.5 -50,42.5 "/>
</g>
<g transform="matrix(1 0 0 1 338.82 121.31)" style="">
		<text xml:space="preserve" font-family="'Open Sans', sans-serif" font-size="18" font-style="normal" font-weight="bold" style="stroke: none; stroke-width: 1; stroke-dasharray: none; stroke-linecap: butt; stroke-dashoffset: 0; stroke-linejoin: miter; stroke-miterlimit: 4; fill: rgb(223,205,27); fill-rule: nonzero; opacity: 1; white-space: pre;"><tspan x="-10.32" y="5.65" style="font-style: italic; ">B</tspan></text>
</g>
</svg>