<svg xmlns="http://www.w3.org/2000/svg" xmlns:xlink="http://www.w3.org/1999/xlink" version="1.1" width="800" height="600" viewBox="0 0 800 600" xml:space="preserve">
	<rect x="0" y="0" width="100%" height="100%" fill="rgba(255, 255, 255, 1)"></rect>
	<g transform="matrix(0 0 0 0 0 0)"></g>
	<g transform="matrix(2.34 0 0 1.06 321.17 273.78)">
		<polygon style="stroke: rgb(0,0,0); stroke-width: 0.2; stroke-dasharray: none; stroke-linecap: butt; stroke-dashoffset: 0; stroke-linejoin: miter; stroke-miterlimit: 4; fill: rgb(214,214,214); fill-rule: nonzero; opacity: 1;" points="-50,-50 -50,50 50,50 50,-50 "></polygon>
	</g>
	<g transform="matrix(0.07 0 0 0.07 319.86 272.42)">
		<circle style="stroke: rgb(0,0,0); stroke-width: 1; stroke-dasharray: none; stroke-linecap: butt; stroke-dashoffset: 0; stroke-linejoin: miter; stroke-miterlimit: 4; fill: rgb(214,214,214); fill-rule: nonzero; opacity: 1;" cx="0" cy="0" r="40"></circle>
	</g>
	<g transform="matrix(5.73 0 0 4.91 319.99 327.5)">
		<line style="stroke: rgb(0,0,0); stroke-width: 0.3; stroke-dasharray: none; stroke-linecap: butt; stroke-dashoffset: 0; stroke-linejoin: miter; stroke-miterlimit: 4; fill: rgb(0,0,0); fill-rule: nonzero; opacity: 1;" x1="-55.833333333333314" y1="0" x2="55.833333333333314" y2="0"></line>
	</g>
	<g transform="matrix(1 0 0 1 155.27 274.63)">
		<line style="stroke: rgb(0,0,0); stroke-width: 3; stroke-dasharray: none; stroke-linecap: butt; stroke-dashoffset: 0; stroke-linejoin: miter; stroke-miterlimit: 4; fill: rgb(0,0,0); fill-rule: nonzero; opacity: 1;" x1="-43.66666666666666" y1="0" x2="43.66666666666666" y2="0"></line>
	</g>
	<g transform="matrix(0 0.07 -0.07 0 201 274.5)">
		<polygon style="stroke: rgb(0,0,0); stroke-width: 2; stroke-dasharray: none; stroke-linecap: butt; stroke-dashoffset: 0; stroke-linejoin: miter; stroke-miterlimit: 4; fill: rgb(0,0,0); fill-rule: nonzero; opacity: 1;" points="0,-42.5 50,42.5 -50,42.5 "></polygon>
	</g>
	<g transform="matrix(-1 0 0 -1 488.2 273.86)">
		<line style="stroke: rgb(0,0,0); stroke-width: 3; stroke-dasharray: none; stroke-linecap: butt; stroke-dashoffset: 0; stroke-linejoin: miter; stroke-miterlimit: 4; fill: rgb(0,0,0); fill-rule: nonzero; opacity: 1;" x1="-43.66666666666666" y1="0" x2="43.66666666666666" y2="0"></line>
	</g>
	<g transform="matrix(0 -0.07 0.07 0 441.57 274.1)">
		<polygon style="stroke: rgb(0,0,0); stroke-width: 2; stroke-dasharray: none; stroke-linecap: butt; stroke-dashoffset: 0; stroke-linejoin: miter; stroke-miterlimit: 4; fill: rgb(0,0,0); fill-rule: nonzero; opacity: 1;" points="0,-42.5 50,42.5 -50,42.5 "></polygon>
	</g>
	<g transform="matrix(1 0 0 1 147.71 252.45)">
		<g style="">
			<g transform="matrix(1 0 0 1 0 0.99)" style="">
				<text xml:space="preserve" font-family="'Open Sans', sans-serif" font-size="18" font-style="normal" font-weight="normal" style="stroke: none; stroke-width: 1; stroke-dasharray: none; stroke-linecap: butt; stroke-dashoffset: 0; stroke-linejoin: miter; stroke-miterlimit: 4; fill: rgb(0,0,0); fill-rule: nonzero; opacity: 1; white-space: pre;"><tspan x="-10.12" y="5.65" style="stroke-width: 1; font-family: 'Open Sans', sans-serif; font-size: 18px; font-style: italic; font-weight: normal; fill: rgb(0,0,0); ">F</tspan><tspan x="0.88" y="5.65" dy="1.98" style="stroke-width: 1; font-family: 'Open Sans', sans-serif; font-size: 10.799999999999999px; font-style: italic; font-weight: normal; fill: rgb(0,0,0); baseline-shift: -1.98; ">1</tspan></text>
			</g>
			<g transform="matrix(0.1 0 0 1 -1.78 -9.61)">
				<line style="stroke: rgb(0,0,0); stroke-width: 1; stroke-dasharray: none; stroke-linecap: butt; stroke-dashoffset: 0; stroke-linejoin: miter; stroke-miterlimit: 4; fill: rgb(0,0,0); fill-rule: nonzero; opacity: 1;" x1="-43.66666666666666" y1="0" x2="43.66666666666666" y2="0"></line>
			</g>
			<g transform="matrix(0 0.04 -0.04 0 4.75 -9.66)">
				<polygon style="stroke: rgb(0,0,0); stroke-width: 0; stroke-dasharray: none; stroke-linecap: butt; stroke-dashoffset: 0; stroke-linejoin: miter; stroke-miterlimit: 4; fill: rgb(0,0,0); fill-rule: nonzero; opacity: 1;" points="0,-42.5 50,42.5 -50,42.5 "></polygon>
			</g>
		</g>
	</g>
	<g transform="matrix(1 0 0 1 484.14 252.45)">
		<g style="">
			<g transform="matrix(1 0 0 1 0 0.99)" style="">
				<text xml:space="preserve" font-family="'Open Sans', sans-serif" font-size="18" font-style="normal" font-weight="normal" style="stroke: none; stroke-width: 1; stroke-dasharray: none; stroke-linecap: butt; stroke-dashoffset: 0; stroke-linejoin: miter; stroke-miterlimit: 4; fill: rgb(0,0,0); fill-rule: nonzero; opacity: 1; white-space: pre;"><tspan x="-10.12" y="5.65" style="stroke-width: 1; font-family: 'Open Sans', sans-serif; font-size: 18px; font-style: italic; font-weight: normal; fill: rgb(0,0,0); ">F</tspan><tspan x="0.88" y="5.65" dy="1.98" style="stroke-width: 1; font-family: 'Open Sans', sans-serif; font-size: 10.799999999999999px; font-style: italic; font-weight: normal; fill: rgb(0,0,0); baseline-shift: -1.98; ">2</tspan></text>
			</g>
			<g transform="matrix(0.1 0 0 1 -1.78 -9.61)">
				<line style="stroke: rgb(0,0,0); stroke-width: 1; stroke-dasharray: none; stroke-linecap: butt; stroke-dashoffset: 0; stroke-linejoin: miter; stroke-miterlimit: 4; fill: rgb(0,0,0); fill-rule: nonzero; opacity: 1;" x1="-43.66666666666666" y1="0" x2="43.66666666666666" y2="0"></line>
			</g>
			<g transform="matrix(0 0.04 -0.04 0 4.75 -9.66)">
				<polygon style="stroke: rgb(0,0,0); stroke-width: 0; stroke-dasharray: none; stroke-linecap: butt; stroke-dashoffset: 0; stroke-linejoin: miter; stroke-miterlimit: 4; fill: rgb(0,0,0); fill-rule: nonzero; opacity: 1;" points="0,-42.5 50,42.5 -50,42.5 "></polygon>
			</g>
		</g>
	</g>
</svg>